<svg xmlns="http://www.w3.org/2000/svg" width="70.703" height="83.775" viewBox="0 0 70.703 83.775">
  <g id="Gruppe_252" data-name="Gruppe 252" transform="translate(-17084.561 -16780)">
    <g id="Pfad_39" data-name="Pfad 39" transform="translate(17085.561 16783)" fill="#383838" stroke-linecap="round">
      <path d="M 34.35115051269531 78.38803100585938 L 33.25830459594727 77.67502593994141 C 32.93060684204102 77.46121215820312 25.14163970947266 72.34485626220703 17.23858451843262 64.18083190917969 C 12.5669059753418 59.35490036010742 8.836728096008301 54.46524429321289 6.151639461517334 49.64768981933594 C 2.733261585235596 43.51446533203125 1.000006079673767 37.46987915039062 1.000006079673767 31.68182182312012 C 1.000006079673767 27.26528930664062 1.88413941860199 22.98022270202637 3.627850532531738 18.94562149047852 C 5.310394763946533 15.05256652832031 7.71796178817749 11.5573558807373 10.78366184234619 8.557110786437988 C 13.84636116027832 5.559788703918457 17.41247367858887 3.206700086593628 21.3829402923584 1.563188910484314 C 25.49181747436523 -0.1376222223043442 29.85496139526367 -1 34.35115051269531 -1 C 38.84733963012695 -1 43.21047210693359 -0.1376222223043442 47.31936264038086 1.563188910484314 C 51.28981781005859 3.206700086593628 54.85592651367188 5.559788703918457 57.91864013671875 8.557110786437988 C 60.98434066772461 11.5573558807373 63.39190673828125 15.05255508422852 65.07444763183594 18.94562149047852 C 66.81817626953125 22.98021125793457 67.70230865478516 27.26528930664062 67.70230865478516 31.68182182312012 C 67.70230865478516 37.46987915039062 65.96903991699219 43.51446533203125 62.55066299438477 49.64768981933594 C 59.86558532714844 54.46524429321289 56.13539505004883 59.35490036010742 51.46371841430664 64.18083190917969 C 43.56066131591797 72.34485626220703 35.77169418334961 77.46121215820312 35.44399642944336 77.67502593994141 L 34.35115051269531 78.38803100585938 Z" stroke="none"/>
      <path d="M 34.35115051269531 1 C 17.036376953125 1 3.000007629394531 14.73672103881836 3.000007629394531 31.68181228637695 C 3.000007629394531 55.54545593261719 34.35115051269531 76 34.35115051269531 76 C 34.35115051269531 76 65.70230102539062 55.54545593261719 65.70230102539062 31.68181228637695 C 65.70230102539062 14.73672103881836 51.66590881347656 1 34.35115051269531 1 M 34.35115051269531 -3 C 39.11115264892578 -3 43.73164367675781 -2.086456298828125 48.08428192138672 -0.2847442626953125 C 52.29193878173828 1.456932067871094 56.07133483886719 3.950851440429688 59.31751251220703 7.127723693847656 C 62.56967163085938 10.31045532226562 65.124267578125 14.01961517333984 66.91032409667969 18.15217208862305 C 68.762939453125 22.43874740600586 69.70229339599609 26.99077224731445 69.70229339599609 31.68181228637695 C 69.70229339599609 37.81473159790039 67.8839111328125 44.18692016601562 64.29764556884766 50.62137603759766 C 61.52787017822266 55.59088134765625 57.69338989257812 60.6209602355957 52.90071105957031 65.57189178466797 C 44.84328460693359 73.89537048339844 36.87221527099609 79.1312255859375 36.53683090209961 79.35003662109375 L 34.35115051269531 80.77605438232422 L 32.16547012329102 79.35003662109375 C 31.83008193969727 79.1312255859375 23.85901641845703 73.89537048339844 15.80158996582031 65.57189178466797 C 11.0089111328125 60.6209602355957 7.174430847167969 55.59088134765625 4.404655456542969 50.62137603759766 C 0.818389892578125 44.18692016601562 -0.9999923706054688 37.81473159790039 -0.9999923706054688 31.68181228637695 C -0.9999923706054688 26.99077224731445 -0.060638427734375 22.43874740600586 1.791976928710938 18.15217208862305 C 3.578033447265625 14.01961517333984 6.13262939453125 10.31045532226562 9.384792327880859 7.127723693847656 C 12.63096237182617 3.950851440429688 16.41036224365234 1.456932067871094 20.61801528930664 -0.284759521484375 C 24.97064208984375 -2.086456298828125 29.59115219116211 -3 34.35115051269531 -3 Z" stroke="none" fill="#fff"/>
    </g>
    <path id="Pfad_44" data-name="Pfad 44" d="M2,21.943l6.972-6.972L2,8" transform="translate(17101.006 16801.893)" fill="none" stroke="#fff" stroke-linecap="round" stroke-linejoin="round" stroke-width="4"/>
    <path id="Pfad_45" data-name="Pfad 45" d="M21.943,2,14.972,8.972,8,2" transform="translate(17105.463 16797.436)" fill="none" stroke="#fff" stroke-linecap="round" stroke-linejoin="round" stroke-width="4"/>
    <path id="Pfad_46" data-name="Pfad 46" d="M8,24.972,14.972,18l6.972,6.972" transform="translate(17105.463 16809.322)" fill="none" stroke="#fff" stroke-linecap="round" stroke-linejoin="round" stroke-width="4"/>
    <path id="Pfad_47" data-name="Pfad 47" d="M24.972,21.943,18,14.972,24.972,8" transform="translate(17112.893 16801.893)" fill="none" stroke="#fff" stroke-linecap="round" stroke-linejoin="round" stroke-width="4"/>
    <circle id="Ellipse_17" data-name="Ellipse 17" cx="3.5" cy="3.5" r="3.5" transform="translate(17116.846 16812.865)" fill="#fff"/>
  </g>
</svg>
