<svg xmlns="http://www.w3.org/2000/svg" xmlns:xlink="http://www.w3.org/1999/xlink" width="83" height="76" viewBox="0 0 83 76">
  <defs>
    <filter id="Ellipse_15" x="37" y="0" width="46" height="45" filterUnits="userSpaceOnUse">
      <feOffset dy="3" input="SourceAlpha"/>
      <feGaussianBlur stdDeviation="3" result="blur"/>
      <feFlood flood-opacity="0.161"/>
      <feComposite operator="in" in2="blur"/>
      <feComposite in="SourceGraphic"/>
    </filter>
  </defs>
  <g id="Gruppe_245" data-name="Gruppe 245" transform="translate(-17084 -16367)">
    <g id="Gruppe_125" data-name="Gruppe 125" transform="translate(17089.488 16372.999)">
      <g id="Ellipse_50" data-name="Ellipse 50" transform="translate(-0.489 3.001)" fill="none" stroke="#00f5ff" stroke-width="5">
        <circle cx="31" cy="31" r="31" stroke="none"/>
        <circle cx="31" cy="31" r="33.5" fill="none"/>
      </g>
      <circle id="Ellipse_13" data-name="Ellipse 13" cx="30" cy="30" r="30" transform="translate(0.511 4.001)" fill="#fff"/>
      <path id="bike" d="M23.984,94.629a8.534,8.534,0,1,0,5.2-7.875l-1.439-2.8V79.479a.615.615,0,0,0-.4-.6l-3.4-1.239A.62.62,0,1,0,23.5,78.8l3,1.119v3.6H14.111V82.277H15.63a.64.64,0,1,0,0-1.279H11.672a.64.64,0,1,0,0,1.279h1.159V84l-1.239,2.638a8.557,8.557,0,1,0,5.476,8.634h2.758a.683.683,0,0,0,.52-.28l6.676-9.634,1.039,2A8.564,8.564,0,0,0,23.984,94.629ZM8.554,101.9a7.275,7.275,0,0,1,0-14.55,7.582,7.582,0,0,1,2.518.44L7.995,94.349h0v.04a.36.36,0,0,0-.04.2v.04h0a.3.3,0,0,0,.04.2.039.039,0,0,0,.04.04c0,.04,0,.04.04.08s.04.08.08.08v.04c.04.04.12.08.16.12h.04a.435.435,0,0,0,.2.04h7.235A7.269,7.269,0,0,1,8.554,101.9Zm3.638-13.551a7.236,7.236,0,0,1,3.6,5.636H9.554Zm7.315,5.636H17.069a8.437,8.437,0,0,0-4.317-6.8l1.119-2.4H25.863Zm13.031-6.636a7.307,7.307,0,1,1-3.917,1.159l3.358,6.436a.677.677,0,0,0,.56.36.741.741,0,0,0,.28-.08.621.621,0,0,0,.28-.839L29.74,87.914A7.283,7.283,0,0,1,32.538,87.354Z" transform="translate(9.801 -56.693)" fill="#383838" stroke="#383838" stroke-width="1"/>
      <g transform="matrix(1, 0, 0, 1, -5.49, -6)" filter="url(#Ellipse_15)">
        <ellipse id="Ellipse_15-2" data-name="Ellipse 15" cx="14" cy="13.5" rx="14" ry="13.5" transform="translate(46 6)" fill="#383838"/>
      </g>
    </g>
  </g>
</svg>
