<svg xmlns="http://www.w3.org/2000/svg" width="62.703" height="75" viewBox="0 0 62.703 75">
  <g id="Gruppe_251" data-name="Gruppe 251" transform="translate(-17088.561 -17009)">
    <g id="Gruppe_128" data-name="Gruppe 128" transform="translate(14810 10394)">
      <g id="Gruppe_113" data-name="Gruppe 113" transform="translate(1047 1312)">
        <g id="Gruppe_106" data-name="Gruppe 106" transform="translate(1231.561 5302.999)">
          <g id="map-pin" transform="translate(0 0)">
            <path id="Pfad_39" data-name="Pfad 39" d="M65.7,31.682C65.7,55.545,34.351,76,34.351,76S3,55.545,3,31.682C3,14.737,17.036,1,34.351,1S65.7,14.737,65.7,31.682Z" transform="translate(-3 -1)" fill="#fff"/>
          </g>
        </g>
      </g>
      <g id="flag" transform="translate(2294.916 6629.742)">
        <path id="Pfad_55" data-name="Pfad 55" d="M4,23.248s1.634-1.634,6.538-1.634,8.172,3.269,13.075,3.269,6.538-1.634,6.538-1.634V3.634s-1.634,1.634-6.538,1.634S15.441,2,10.538,2,4,3.634,4,3.634Z" transform="translate(0.017)" fill="none" stroke="#383838" stroke-linecap="round" stroke-linejoin="round" stroke-width="4"/>
        <line id="Linie_30" data-name="Linie 30" y1="11" transform="translate(4.084 23.258)" fill="none" stroke="#383838" stroke-linecap="round" stroke-linejoin="round" stroke-width="4"/>
      </g>
    </g>
  </g>
</svg>
